<svg xmlns="http://www.w3.org/2000/svg" xmlns:xlink="http://www.w3.org/1999/xlink" version="1.1" style="enable-background:new 0 0 512.193 512.193;" xml:space="preserve" width="55" height="38.24561405181885"><rect id="backgroundrect" width="100%" height="100%" x="0" y="0" fill="none" stroke="none" style="" class=""/> <g class="currentLayer" style=""><title>Layer 1</title><g id="svg_1" class=""><g stroke-width="0" id="svg_2">
	<rect x="294.1075973510742" y="-2469.199378967285" transform="matrix(0.0654992, -0.0700051, 0.0700051, 0.0654992, 167.187, 217.267)" width="510.4079895019531" height="30.000999450683594" data-original="#000000" class="active-path" fill="#000000" stroke-width="0" id="svg_3"/>
	<path d="M52.57847595214844,19.188446521759033 l-0.0011504526482895017,-0.0567556656897068 c-0.1303846389055252,-3.3013198375701904 -2.887540340423584,-6.300454616546631 -7.76344633102417,-8.445184707641602 c-0.15185974538326263,-0.0668221265077591 -0.305732786655426,-0.13220618665218353 -0.4607563316822052,-0.19701503217220306 l-8.613631248474121,9.206977844238281 c0.1393006443977356,0.02578931301832199 0.2779301702976227,0.05263321101665497 0.4163680076599121,0.07986059784889221 h16.42261505126953 V19.188446521759033 z" data-original="#000000" class="active-path" fill="#000000" stroke-width="0" id="svg_4"/>
	<polygon points="19.804763793945312,24.099045276641846 19.804763793945312,22.65254259109497 3.4739837646484375,22.65254259109497 3.4739837646484375,27.569489002227783 16.557891845703125,27.569489002227783 " data-original="#000000" class="active-path" fill="#000000" stroke-width="0" id="svg_5"/>
	<path d="M19.804763793945312,19.776413440704346 v-0.0099705895408988 c1.4960678815841675,-0.29240670800209045 3.045823574066162,-0.5004469156265259 4.637282848358154,-0.6239288449287415 l10.3871488571167,-11.1025390625 c-2.1847095489501953,-0.290968656539917 -4.470467567443848,-0.4426366686820984 -6.802914142608643,-0.4426366686820984 c-6.371973514556885,0 -12.38500690460205,1.119965672492981 -16.931306838989258,3.153486728668213 C6.180419921875,12.948761463165283 3.4739837646484375,16.01136827468872 3.4739837646484375,19.373947620391846 v0.40246668457984924 H19.804763793945312 z" data-original="#000000" class="active-path" fill="#000000" stroke-width="0" id="svg_6"/>
	<rect x="-1460.6411437988281" y="-1736.4118118286133" width="170.34100341796875" height="51.2869987487793" data-original="#000000" class="active-path" fill="#000000" transform="matrix(0.0958711, 0, 0, 0.0958711, 176.281, 189.124)" stroke-width="0" id="svg_7"/>
</g></g></g></svg>