<svg xmlns="http://www.w3.org/2000/svg" xmlns:xlink="http://www.w3.org/1999/xlink" version="1.1" width="44.7" height="44.7" style="enable-background:new 0 0 44.7 44.7;" xml:space="preserve"><rect id="backgroundrect" width="100%" height="100%" x="0" y="0" fill="none" stroke="none"/> <g class="currentLayer" style=""><title>Layer 1</title><g id="svg_1" class=""><g stroke-width="0" id="svg_2">
	<g stroke-width="0" id="svg_3">
		<ellipse cx="5.527956008911133" cy="-0.9385261535644531" rx="3.3959999084472656" ry="3.384000062942505" data-original="#000000" class="active-path" fill="#000000" transform="matrix(0.826587, 0, 0, 0.823127, 19.2111, 20.514)" stroke-width="0" id="svg_4"/>
		<ellipse cx="14.823955535888672" cy="-0.9385261535644531" rx="3.3959999084472656" ry="3.384000062942505" data-original="#000000" class="active-path" fill="#000000" transform="matrix(0.826587, 0, 0, 0.823127, 19.2111, 20.514)" stroke-width="0" id="svg_5"/>
		<ellipse cx="24.119956970214844" cy="-0.9385261535644531" rx="3.3959999084472656" ry="3.384000062942505" data-original="#000000" class="active-path" fill="#000000" transform="matrix(0.826587, 0, 0, 0.823127, 19.2111, 20.514)" stroke-width="0" id="svg_6"/>
		<path d="M24.47395939513717,27.15378398681787 c-0.012398810111767578,0.005761890066745989 -3.756012697544975,1.590281801858339 -3.756012697544975,1.590281801858339 l-6.014249080544005,-14.35616046856694 c0,0 3.7601457456602247,-1.5507715454415347 3.770064576159257,-1.5548872729293635 c0.9538818531504774,-0.3951010486131423 0.7786451683888913,-2.9805436126063114 -0.39014921113812306,-5.7717682641356305 c-1.1704477200175063,-2.7920473813318267 -2.892229024304754,-4.734627454018437 -3.845284250511554,-4.339526621913137 C14.225928894386925,2.72748140371732 9.963219947911966,4.5186047140446135 9.963219947911966,4.5186047140446135 c-3.845284250511554,1.909654945609077 -5.635672126998543,6.510113009084762 -3.954393810888746,10.524504434122946 l8.117914105960836,19.377237151702502 c1.7531918290999329,4.188070898791466 6.623443952777052,6.152052685132276 10.815067658665157,4.409492257143484 c0,0 3.754359616863894,-1.5606493260535785 3.7675853015501843,-1.563941804120077 c0.9514019723194451,-0.3951010486131423 0.777818628048351,-2.9805436126063114 -0.39180242172390933,-5.773414070153194 C27.147147434916405,28.70044119042177 25.426192064747738,26.758679690587087 24.47395939513717,27.15378398681787 z" data-original="#000000" class="active-path" fill="#000000" stroke-width="0" id="svg_7"/>
	</g>
</g></g></g></svg>