<svg xmlns="http://www.w3.org/2000/svg" xmlns:xlink="http://www.w3.org/1999/xlink" version="1.1" style="" xml:space="preserve" width="39.807019233703556" height="43.31579113006592"><rect id="backgroundrect" width="100%" height="100%" x="0" y="0" fill="none" stroke="none" style="" class=""/> <g class="currentLayer" style=""><title>Layer 1</title><g id="svg_1" class=""><g stroke-width="0" id="svg_2">
	<g stroke-width="0" id="svg_3">
		<path d="M38.78974914550781,29.349395751953125 c-2.6023218631744385,0 -5.157489776611328,-0.4070071280002594 -7.57883358001709,-1.20718514919281 c-1.1864861249923706,-0.40468260645866394 -2.645048141479492,-0.0334283784031868 -3.3691821098327637,0.710297703742981 l-4.779261589050293,3.607830047607422 c-5.542580604553223,-2.9586329460144043 -8.95670223236084,-6.37164831161499 -11.874933242797852,-11.87260913848877 l3.501677989959717,-4.654735565185547 c0.9097610712051392,-0.9085435271263123 1.2360751628875732,-2.2357165813446045 0.8451181650161743,-3.4809789657592773 c-0.8036094307899475,-2.434072971343994 -1.2118340730667114,-4.988023281097412 -1.2118340730667114,-7.591452121734619 C14.322616577148438,2.979827880859375 12.79254150390625,1.4497528076171875 10.91192626953125,1.4497528076171875 H3.1060638427734375 C1.2254486083984375,1.4497528076171875 -0.30462646484375,2.979827880859375 -0.30462646484375,4.860443115234375 C-0.30462646484375,26.417327880859375 17.232879638671875,43.9547119140625 38.78974914550781,43.9547119140625 c1.8806229829788208,0 3.4106907844543457,-1.530067801475525 3.4106907844543457,-3.4106907844543457 v-7.78405237197876 C42.20033264160156,30.87945556640625 40.670257568359375,29.349395751953125 38.78974914550781,29.349395751953125 z" data-original="#000000" class="active-path" data-old_color="#000000" fill="#4CAF50" stroke-width="0" id="svg_4"/>
	</g>
</g></g></g></svg>