<svg xmlns="http://www.w3.org/2000/svg" xmlns:xlink="http://www.w3.org/1999/xlink" version="1.1" width="40.491230964660645" height="38.73684501647949" style="enable-background:new 0 0 344.356 344.356;" xml:space="preserve"><rect id="backgroundrect" width="100%" height="100%" x="0" y="0" fill="none" stroke="none" style="" class=""/> <g class="currentLayer" style=""><title>Layer 1</title><g id="svg_1" class=""><g stroke-width="0" id="svg_2">
	<g stroke-width="0" id="svg_3">
		<g stroke-width="0" id="svg_4">
			<path d="M14.0286865234375,16.585655212402344 l-0.4118669927120209,-0.7492586374282837 l2.7940361499786377,-2.8563389778137207 c0.924036979675293,-0.9479923248291016 0.9563100934028625,-2.456252336502075 0.06987395137548447,-3.364644765853882 L11.319900512695312,4.339164733886719 C10.917877197265625,3.9290237426757812 10.358566284179688,3.7022171020507812 9.744964599609375,3.7022171020507812 c-0.6475123167037964,0 -1.2713576555252075,0.25886717438697815 -1.713038682937622,0.7111251950263977 l-1.2673618793487549,1.303135871887207 l-0.11905209720134735,0.19915278255939484 c-0.47129058837890625,0.6183059811592102 -0.8576465249061584,1.3147644996643066 -1.1467729806900024,2.072089672088623 c-0.26822584867477417,0.7222299575805664 -0.4353291094303131,1.4088408946990967 -0.5121698975563049,2.0970230102539062 c-0.6499711871147156,5.519182205200195 1.778507113456726,10.60307788848877 8.326578140258789,17.419109344482422 l4.83441686630249,-4.943305015563965 C16.055557250976562,20.292762756347656 14.886337280273438,18.167762756347656 14.0286865234375,16.585655212402344 z" data-original="#000000" class="active-path" fill="#000000" stroke-width="0" id="svg_5"/>
		</g>
		<g stroke-width="0" id="svg_6">
			<path d="M36.94038391113281,30.540489196777344 l-5.1598124504089355,-5.279800891876221 c-0.40305593609809875,-0.41014364361763 -0.9616376757621765,-0.6353822350502014 -1.57626211643219,-0.6353822350502014 c-0.6471024751663208,0 -1.2728943824768066,0.2580290734767914 -1.7133461236953735,0.7101823091506958 l-2.7894256114959717,2.852357864379883 l-0.7542698979377747,-0.4258579909801483 c-1.095648169517517,-0.6227059364318848 -2.4706897735595703,-1.4217265844345093 -3.9635539054870605,-2.588043212890625 l-4.88984489440918,4.998724460601807 c7.154703617095947,6.3063645362854 12.930984497070312,6.868832588195801 14.654781341552734,6.868832588195801 c0.32662487030029297,0 0.5229276418685913,-0.018333368003368378 0.5783555507659912,-0.02399052307009697 c0.7038622498512268,-0.08747636526823044 1.3787299394607544,-0.25981003046035767 2.0585153102874756,-0.5291534066200256 c0.7333691716194153,-0.29312437772750854 1.410798192024231,-0.6844108700752258 2.0142550468444824,-1.166945219039917 l0.28851181268692017,-0.23079092800617218 l1.1855007410049438,-1.1914595365524292 C37.79669189453125,32.95421600341797 37.82752990722656,31.44689178466797 36.94038391113281,30.540489196777344 z" data-original="#000000" class="active-path" fill="#000000" stroke-width="0" id="svg_7"/>
		</g>
	</g>
	<path d="M33.108795166015625,11.533500671386719 L5.48675537109375,39.777671813964844 L4.139373779296875,38.399436950683594 L31.76141357421875,10.155555725097656 L33.108795166015625,11.533500671386719 z" data-original="#000000" class="active-path" fill="#000000" stroke-width="0" id="svg_8"/>
</g></g></g></svg>