<svg xmlns="http://www.w3.org/2000/svg" width="16" height="16.262" viewBox="0 0 16 16.262">
  <g id="incoming-call" transform="translate(-4.835 3)">
    <g id="Group_27" data-name="Group 27" transform="translate(4.835 -3)">
      <g id="Group_25" data-name="Group 25" transform="translate(0 0.31)">
        <path id="Path_10" data-name="Path 10" d="M18.519,19.541l-2.525-2.526a1.08,1.08,0,0,0-.771-.3,1.191,1.191,0,0,0-.838.339L13.02,18.415l-.369-.2a12.8,12.8,0,0,1-3.1-2.242,12.847,12.847,0,0,1-2.247-3.105l-.2-.359,1.367-1.367a1.142,1.142,0,0,0,.034-1.61L5.983,7a1.079,1.079,0,0,0-.771-.3,1.189,1.189,0,0,0-.838.34l-.62.624-.058.1a3.955,3.955,0,0,0-.561.991,4.106,4.106,0,0,0-.25,1c-.326,2.706.922,5.19,4.307,8.575,4.013,4.012,7.365,4.323,8.3,4.323.16,0,.256-.009.283-.011a4.111,4.111,0,0,0,1.006-.254,3.874,3.874,0,0,0,.986-.559l.141-.111.58-.569A1.138,1.138,0,0,0,18.519,19.541Z" transform="translate(-2.835 -6.699)" fill="#ff4324"/>
      </g>
      <g id="Group_26" data-name="Group 26" transform="translate(8.605 0)">
        <path id="Path_11" data-name="Path 11" d="M189.468,7.282c.447,0,4.016-.5,4.15-.522a.588.588,0,0,0,.374-.118c.07-.07.151-.225-.1-.472l-.885-.885,3.164-3.163a.327.327,0,0,0-.037-.482L194.653.157A.455.455,0,0,0,194.346,0a.29.29,0,0,0-.209.087c-.014.015-.024.027-.032.037l-3.2,3.2-.965-.965c-.21-.21-.349-.117-.4-.067a.594.594,0,0,0-.11.388l-.39,4.136a.485.485,0,0,0,.112.346A.4.4,0,0,0,189.468,7.282Z" transform="translate(-189.045 0)" fill="#ff4324"/>
      </g>
    </g>
  </g>
</svg>
