<svg id="happiness" xmlns="http://www.w3.org/2000/svg" width="20" height="20" viewBox="0 0 20 20">
  <path id="Path_2" data-name="Path 2" d="M10,0A10,10,0,1,0,20,10,10.011,10.011,0,0,0,10,0Zm0,18.919A8.917,8.917,0,1,1,18.919,10,8.89,8.89,0,0,1,10,18.919Z"/>
  <circle id="Ellipse_1" data-name="Ellipse 1" cx="1.081" cy="1.081" r="1.081" transform="translate(5.653 6.689)"/>
  <circle id="Ellipse_2" data-name="Ellipse 2" cx="1.081" cy="1.081" r="1.081" transform="translate(12.342 6.689)"/>
  <path id="Path_3" data-name="Path 3" d="M75.882,182.63a6.276,6.276,0,0,0,5.244-2.846l-.908-.587a5.136,5.136,0,0,1-8.633,0l-.908.587a6.278,6.278,0,0,0,4.505,2.805A6.109,6.109,0,0,0,75.882,182.63Z" transform="translate(-65.901 -167.09)"/>
</svg>
