<svg xmlns="http://www.w3.org/2000/svg" xmlns:xlink="http://www.w3.org/1999/xlink" version="1.1" style="" xml:space="preserve" width="46.6315803527832" height="42.85965061187744"><rect id="backgroundrect" width="100%" height="100%" x="0" y="0" fill="none" stroke="none" style="" class="selected"/> <g class="currentLayer" style=""><title>Layer 1</title><g id="svg_1" class=""><circle style="fill:#000000" cx="-1451.0618286132812" cy="-1718.010139465332" r="117.33300018310547" data-original="#FFC107" class="active-path" data-old_color="#FFC107" transform="matrix(0.0812506, 0, 0, 0.0812506, 151.276, 150.891)" stroke-width="0" id="svg_2"/><g stroke-width="0" id="svg_3">
	<path style="fill:#F4F1F1" d="M36.842926025390625,15.635009765625 c-0.23002055287361145,0.00040625318069942296 -0.4507785141468048,-0.09059445559978485 -0.6136047840118408,-0.25309574604034424 l-6.933360576629639,-6.933360576629639 c-0.3324775993824005,-0.34425896406173706 -0.32297128438949585,-0.8929445147514343 0.021287664771080017,-1.2255033254623413 c0.33589011430740356,-0.32435256242752075 0.8683255910873413,-0.32435256242752075 1.2041343450546265,0 l6.933360576629639,6.933360576629639 c0.33889639377593994,0.33800262212753296 0.33954641222953796,0.8867694139480591 0.0015437620459124446,1.2256659269332886 c-0.1629887819290161,0.1633950173854828 -0.3843967616558075,0.25504574179649353 -0.6151486039161682,0.25463950634002686 L36.842926025390625,15.635009765625 z" data-original="#455A64" class="" data-old_color="#455A64" stroke-width="0" id="svg_4"/>
	<path style="fill:#F4F1F1" d="M29.909561157226562,15.635009765625 c-0.47864747047424316,0.0008937570382840931 -0.8673505783081055,-0.3865092694759369 -0.8682442903518677,-0.8651567697525024 c-0.00040625318069942296,-0.23075179755687714 0.09124446660280228,-0.4521598219871521 0.25463950634002686,-0.6151486039161682 l6.933360576629639,-6.933360576629639 c0.34425896406173706,-0.33255884051322937 0.8929445147514343,-0.32297128438949585 1.2255033254623413,0.021287664771080017 c0.3244337737560272,0.33589011430740356 0.3244337737560272,0.8683255910873413 0,1.2042156457901 l-6.933360576629639,6.933360576629639 C30.359283447265625,15.542861938476562 30.139175415039062,15.634429931640625 29.909561157226562,15.635009765625 z" data-original="#455A64" class="" data-old_color="#455A64" stroke-width="0" id="svg_5"/>
</g><path style="fill:#000000" d="M35.23091125488281,28.75640869140625 c-2.0064032077789307,0.004550035577267408 -4.000537872314453,-0.31143367290496826 -5.9072465896606445,-0.9360073804855347 c-0.8909944891929626,-0.3120836913585663 -1.881683588027954,-0.10302580893039703 -2.570526361465454,0.5425105094909668 l-3.7388293743133545,2.8253281116485596 c-4.017518997192383,-2.016396999359131 -7.277050971984863,-5.275360584259033 -9.29417896270752,-9.292471885681152 l2.7473278045654297,-3.6556286811828613 c0.692255437374115,-0.6948554515838623 0.939582347869873,-1.7176384925842285 0.6413112878799438,-2.6520206928253174 c-0.6287986636161804,-1.9088211059570312 -0.9477887153625488,-3.9061243534088135 -0.9447011351585388,-5.915939807891846 c0,-1.435942530632019 -1.164077877998352,-2.600020408630371 -2.600020408630371,-2.600020408630371 H7.4973907470703125 c-1.435942530632019,0 -2.600020408630371,1.164077877998352 -2.600020408630371,2.600020408630371 C4.9164581298828125,26.417129516601562 18.486053466796875,39.98670959472656 35.23091125488281,40.00581359863281 c1.435942530632019,0 2.600020408630371,-1.164077877998352 2.600020408630371,-2.600020408630371 V31.356430053710938 C37.8309326171875,29.920486450195312 36.66685485839844,28.75640869140625 35.23091125488281,28.75640869140625 z" data-original="#009688" class="" data-old_color="#009688" stroke-width="0" id="svg_6"/></g></g></svg>