<svg xmlns="http://www.w3.org/2000/svg" xmlns:xlink="http://www.w3.org/1999/xlink" version="1.1" style="" xml:space="preserve" width="49.78947353363037" height="51.789473533630385"><rect id="backgroundrect" width="100%" height="100%" x="0" y="0" fill="none" stroke="none" style="" class=""/> <g class="currentLayer" style=""><title>Layer 1</title><g id="svg_1" class=""><g stroke-width="0" id="svg_2">
	<g stroke-width="0" id="svg_3">
		<path d="M42.49738043772413,3.2722167610481847 H26.702243432217074 c-2.1774434785483976,0 -3.948777316687142,1.7367493977375403 -3.948777316687142,3.8716793406725856 v10.324478468436666 c0,2.1349299429350452 1.7713338381387445,3.8716793406725856 3.948777316687142,3.8716793406725856 h1.3162591344569208 v3.8716793406725856 c0,1.1508351843100328 1.4236659477885638,1.7196277577012182 2.246854347285563,0.9124257043314401 L35.14481196628185,21.340060030193854 H42.49738043772413 c2.1774434785483976,0 3.948777316687142,-1.7367493977375403 3.948777316687142,-3.8716793406725856 V7.1438974615793995 C46.44613695034241,5.008962929121481 44.67480640618123,3.2722167610481847 42.49738043772413,3.2722167610481847 zM39.47918160392692,10.637428674486728 l-5.265036537827683,5.162239234218333 c-0.5142185910655783,0.5041787206396933 -1.347059558415431,0.5041787206396933 -1.86127832284825,0 l-2.6325182689138416,-2.5811196171091666 c-0.514130823900043,-0.5040926670858106 -0.514130823900043,-1.320844965113281 0,-1.824937759685838 c0.514130823900043,-0.5040926670858106 1.3471473689227764,-0.5040926670858106 1.86127832284825,0 L33.28356346259898,13.062306824440384 l4.334441411682661,-4.249813529886893 c0.514130823900043,-0.5040926670858106 1.3471473689227764,-0.5040926670858106 1.86127832284825,0 S39.99339161331409,10.133345398924575 39.47918160392692,10.637428674486728 z" data-original="#000000" class="active-path" fill="#000000" stroke-width="0" id="svg_4"/>
	</g>
</g><g stroke-width="0" id="svg_5">
	<g stroke-width="0" id="svg_6">
		<path d="M27.2946545495397,34.465741885856914 c-0.4269066879040295,0.09782442643417077 -0.8940031961482475,-0.0036996049598174152 -1.2291227656264425,-0.33305047736167204 l-11.168897377152689,-10.950830033001921 c-0.3325748201084888,-0.32608145686022105 -0.43620827377836235,-0.7834557770298645 -0.3367868422306941,-1.2033179082122487 L3.578925871732281,11.21259448031742 c-3.309602119894919,5.367868217053541 -2.644715521123686,12.450287669562954 2.0768812905578216,17.079784947572193 l15.23982370378917,14.942273483011832 c4.55285258195488,4.4661112835979395 11.64950742838073,5.4693065315383365 17.417443843555702,2.0342662379219405 L27.2946545495397,34.465741885856914 z" data-original="#000000" class="active-path" fill="#000000" stroke-width="0" id="svg_7"/>
	</g>
</g><g stroke-width="0" id="svg_8">
	<g stroke-width="0" id="svg_9">
		<path d="M17.678226138184982,14.37342812042516 c-0.050105597588301354,-0.054203513446637874 -0.6490912395089232,-0.6932027247265324 -6.1404367355945055,-6.087312643695839 c-1.5349337362511761,-1.5049648940271965 -3.9471979411256086,-1.634881197943571 -5.8820106725278265,0.26215571382292424 c-0.183486534698849,0.17990404844635144 -0.3102861642181143,0.3912977057366831 -0.4817508076709487,0.5785149676522252 l11.531745303086609,11.305905439404569 l0.48912186263798674,-0.2655971972967084 C19.1565688196697,18.735354175107204 19.289692669415672,15.948100897629047 17.678226138184982,14.37342812042516 z" data-original="#000000" class="active-path" fill="#000000" stroke-width="0" id="svg_10"/>
	</g>
</g><g stroke-width="0" id="svg_11">
	<g stroke-width="0" id="svg_12">
		<path d="M41.28220090578725,37.50895319396841 l-5.549085238846203,-5.434375162999288 c-2.1117185707128527,-2.0727250797452825 -4.9537851298268265,-2.3796203549486847 -6.690545552750677,-0.042846585049074015 l-0.17980100721533,0.32152146841608165 l11.57878122238941,11.352711093494293 c0.20340591053787271,-0.17947384442031122 0.4342777428710676,-0.31842411416666394 0.6285575801947729,-0.5104594401968292 C42.98957696837351,41.30267591900156 42.75146746549399,38.94957654693462 41.28220090578725,37.50895319396841 z" data-original="#000000" class="active-path" fill="#000000" stroke-width="0" id="svg_13"/>
	</g>
</g></g></g></svg>