<svg xmlns="http://www.w3.org/2000/svg" width="14.153" height="17.691" viewBox="0 0 14.153 17.691">
  <g id="Icon_ionic-ios-pause" data-name="Icon ionic-ios-pause" transform="translate(-9 -6.75)">
    <path id="Path_12" data-name="Path 12" d="M12.975,24.441H9.448A.445.445,0,0,1,9,24V7.192a.445.445,0,0,1,.448-.442h3.527a.445.445,0,0,1,.448.442V24A.445.445,0,0,1,12.975,24.441Z"/>
    <path id="Path_13" data-name="Path 13" d="M25.35,24.441H21.823A.445.445,0,0,1,21.375,24V7.192a.445.445,0,0,1,.448-.442H25.35a.445.445,0,0,1,.448.442V24A.445.445,0,0,1,25.35,24.441Z" transform="translate(-2.645)"/>
  </g>
</svg>
