<svg xmlns="http://www.w3.org/2000/svg" width="20.654" height="19" viewBox="0 0 20.654 19">
  <g id="metal-paper-clip-" opacity="0.6">
    <path id="Path_1" data-name="Path 1" d="M13.81,48.83a3.664,3.664,0,0,1-2.591-6.255L22.547,31.246a4.835,4.835,0,1,1,6.838,6.837L20.468,47a.685.685,0,0,1-.969-.969l8.917-8.917a3.465,3.465,0,0,0-4.9-4.9L12.188,43.543a2.3,2.3,0,0,0,0,3.244,2.35,2.35,0,0,0,3.244,0l7.607-7.607a1.118,1.118,0,0,0,.325-.785,1.11,1.11,0,0,0-1.9-.785l-5.195,5.2a.685.685,0,0,1-.969-.969l5.195-5.2a2.48,2.48,0,1,1,3.508,3.508L16.4,47.757A3.641,3.641,0,0,1,13.81,48.83Z" transform="translate(-10.148 -29.83)"/>
  </g>
</svg>
