<svg xmlns="http://www.w3.org/2000/svg" width="20.667" height="19.014" viewBox="0 0 20.667 19.014">
  <g id="comment" transform="translate(-0.001 1.332)" opacity="0.6">
    <path id="Path_4" data-name="Path 4" d="M17.826-1.332H2.842A2.844,2.844,0,0,0,0,1.509v9.17A2.845,2.845,0,0,0,2.832,13.52v4.161l5.98-4.161h9.014a2.845,2.845,0,0,0,2.841-2.841V1.509a2.844,2.844,0,0,0-2.841-2.841Zm1.63,12.011a1.632,1.632,0,0,1-1.63,1.63H8.432L4.043,15.364V12.31h-1.2a1.632,1.632,0,0,1-1.63-1.63V1.509a1.632,1.632,0,0,1,1.63-1.63H17.826a1.632,1.632,0,0,1,1.63,1.63Zm0,0"/>
    <path id="Path_5" data-name="Path 5" d="M171.293,131.172h9.6v1.211h-9.6Zm0,0" transform="translate(-165.761 -128.225)"/>
    <path id="Path_6" data-name="Path 6" d="M171.293,211.172h9.6v1.211h-9.6Zm0,0" transform="translate(-165.761 -205.642)"/>
    <path id="Path_7" data-name="Path 7" d="M171.293,291.172h9.6v1.211h-9.6Zm0,0" transform="translate(-165.761 -283.059)"/>
  </g>
</svg>
