<svg xmlns="http://www.w3.org/2000/svg" width="21.108" height="18.5" viewBox="0 0 21.108 18.5">
  <g id="gallery" transform="translate(0 -26.576)" opacity="0.6">
    <g id="Group_2" data-name="Group 2" transform="translate(0 26.576)">
      <g id="Group_1" data-name="Group 1" transform="translate(0 0)">
        <path id="Path_8" data-name="Path 8" d="M176.142,159.668a2.153,2.153,0,1,0,2.153,2.153A2.153,2.153,0,0,0,176.142,159.668Zm0,3.281a1.128,1.128,0,1,1,0-2.256h0a1.128,1.128,0,1,1,0,2.256Z" transform="translate(-165.453 -153.138)"/>
        <path id="Path_9" data-name="Path 9" d="M19.276,28.184l-14-1.589a1.922,1.922,0,0,0-1.512.436,1.948,1.948,0,0,0-.743,1.333l-.256,2.1H1.974A2.06,2.06,0,0,0,0,32.593V43.076a1.948,1.948,0,0,0,1.9,2h14.15a2.1,2.1,0,0,0,2.153-2v-.41a2.563,2.563,0,0,0,.974-.41,2.128,2.128,0,0,0,.743-1.384L21.1,30.465A2.076,2.076,0,0,0,19.276,28.184Zm-2.1,14.892a1.079,1.079,0,0,1-1.128.974H1.974a.923.923,0,0,1-.949-.9q0-.039,0-.079v-1.9L5,38.257a1.23,1.23,0,0,1,1.589.077L9.382,40.8a2.41,2.41,0,0,0,1.512.564,2.333,2.333,0,0,0,1.23-.333l5.05-2.922v4.973Zm0-6.177-5.588,3.255a1.307,1.307,0,0,1-1.512-.128L7.254,37.54a2.281,2.281,0,0,0-2.845-.1L1.026,39.9V32.593a1.035,1.035,0,0,1,.948-1.1H16.046a1.179,1.179,0,0,1,1.128,1.1Zm2.9-6.572v.01l-1.2,10.407a.871.871,0,0,1-.333.692c-.1.1-.333.154-.333.205V32.593a2.2,2.2,0,0,0-2.153-2.127H3.794l.231-2a1.179,1.179,0,0,1,.384-.666,1.179,1.179,0,0,1,.769-.205l13.97,1.615A1.025,1.025,0,0,1,20.072,30.327Z" transform="translate(0 -26.576)"/>
      </g>
    </g>
  </g>
</svg>
